<?xml version="1.0" standalone="no"?>
<!DOCTYPE svg PUBLIC "-//W3C//DTD SVG 20010904//EN"
 "http://www.w3.org/TR/2001/REC-SVG-20010904/DTD/svg10.dtd">
<svg version="1.0" xmlns="http://www.w3.org/2000/svg"
 width="1024.000000pt" height="1024.000000pt" viewBox="0 0 1024.000000 1024.000000"
 preserveAspectRatio="xMidYMid meet">

<g transform="translate(0.000000,1024.000000) scale(0.100000,-0.100000)"
fill="#000000" stroke="none">
<path d="M832 10210 c-38 -16 -55 -73 -60 -200 -3 -77 1 -148 12 -215 8 -55
18 -119 21 -142 6 -50 34 -164 44 -178 4 -5 16 -35 27 -65 71 -189 122 -308
147 -343 16 -22 42 -68 57 -103 26 -57 85 -151 204 -324 25 -36 50 -71 57 -79
7 -8 28 -37 47 -65 19 -28 51 -68 70 -88 69 -73 24 -48 -69 38 -52 47 -134
116 -184 153 -49 37 -111 85 -137 107 -68 56 -136 106 -181 131 -22 12 -57 36
-78 53 -49 39 -195 115 -264 136 -65 21 -91 12 -120 -41 -23 -44 -17 -128 20
-273 33 -131 150 -397 217 -494 10 -14 18 -29 18 -33 0 -4 19 -30 43 -58 23
-28 53 -69 67 -93 54 -92 322 -387 450 -494 36 -31 86 -77 110 -104 43 -47 43
-48 14 -33 -18 9 -45 28 -61 41 -17 14 -66 44 -109 68 -43 23 -110 59 -149 80
-133 72 -270 136 -345 161 -130 44 -298 56 -337 25 -19 -15 -16 -94 7 -167 54
-178 144 -340 284 -511 86 -104 343 -362 410 -410 27 -19 58 -44 70 -56 11
-11 41 -34 66 -50 25 -15 63 -44 85 -64 22 -19 73 -55 113 -80 116 -72 208
-140 189 -140 -10 0 -34 8 -55 19 -74 37 -440 153 -560 176 -143 28 -213 30
-265 7 -54 -24 -65 -50 -48 -117 15 -59 56 -151 84 -189 13 -17 33 -49 46 -70
31 -54 159 -201 229 -263 140 -124 341 -265 472 -331 41 -21 95 -51 120 -66
24 -16 80 -47 124 -70 97 -50 110 -70 34 -51 -171 45 -441 63 -612 41 -65 -9
-121 -18 -124 -20 -9 -10 31 -147 51 -174 120 -156 266 -290 417 -382 32 -19
66 -42 76 -51 51 -43 276 -163 424 -226 202 -86 270 -113 282 -113 6 0 41 -13
77 -29 36 -16 116 -44 176 -61 61 -18 126 -38 145 -45 19 -7 61 -18 93 -25 84
-17 72 -40 -21 -40 -47 -1 -238 -32 -246 -41 -6 -6 19 -80 41 -122 19 -38 138
-176 201 -235 43 -40 168 -137 282 -219 25 -18 77 -49 115 -69 39 -20 84 -46
100 -59 46 -34 367 -175 399 -175 7 0 40 -13 73 -30 50 -25 284 -105 483 -166
30 -9 103 -31 162 -50 59 -19 115 -34 123 -34 9 0 29 -7 45 -15 16 -8 72 -26
125 -39 54 -14 105 -32 114 -40 9 -8 51 -28 93 -44 43 -17 97 -46 120 -66 24
-20 66 -54 93 -77 41 -34 63 -67 124 -183 190 -363 182 -351 329 -557 142
-200 448 -455 675 -565 29 -13 75 -38 102 -54 105 -61 351 -150 498 -180 477
-97 541 -106 572 -80 7 6 24 40 39 77 15 38 38 93 51 123 24 57 45 143 48 194
2 29 0 30 -68 43 -62 11 -110 18 -195 28 -14 1 -32 5 -40 9 -8 3 -54 12 -101
20 -47 8 -129 29 -183 46 -54 17 -106 33 -116 35 -9 2 -57 17 -105 34 -48 17
-92 28 -96 25 -5 -3 -9 -1 -9 4 0 11 -143 82 -214 106 -51 18 -131 59 -157 82
-8 8 -20 14 -25 14 -6 0 -59 30 -119 66 -61 36 -123 73 -139 82 -16 9 -43 29
-60 43 -17 14 -48 36 -68 48 -21 12 -38 26 -38 30 0 5 -28 27 -62 49 -35 22
-79 55 -98 73 -19 19 -55 49 -80 68 -25 19 -46 38 -48 42 -2 5 -45 42 -95 84
-110 90 -84 65 -275 257 -256 258 -362 368 -362 378 0 6 -6 10 -14 10 -8 0
-33 24 -57 53 -23 28 -52 61 -63 73 -12 11 -50 54 -86 95 -36 40 -96 108 -135
150 -38 42 -93 103 -121 135 -28 32 -80 92 -115 132 -35 41 -79 94 -96 119
-18 25 -44 54 -58 65 -14 11 -25 25 -26 31 0 7 -19 37 -42 68 -85 114 -187
265 -187 278 0 3 -15 25 -33 48 -17 24 -49 66 -70 95 -20 29 -60 85 -88 123
-55 76 -73 105 -64 105 11 0 206 -183 294 -275 80 -84 83 -87 305 -300 97 -93
257 -249 355 -345 170 -167 366 -353 516 -490 39 -35 91 -85 116 -110 48 -47
238 -227 324 -305 28 -25 65 -52 83 -60 39 -17 144 -109 154 -135 7 -19 93
-83 112 -84 6 0 23 -13 38 -28 27 -28 27 -28 4 -28 -59 0 -10 -33 69 -47 18
-3 54 -28 92 -64 59 -57 102 -81 72 -41 -7 9 3 1 22 -18 72 -72 178 -142 352
-233 67 -36 138 -74 157 -86 19 -12 55 -30 80 -42 25 -11 63 -29 85 -39 165
-77 225 -99 395 -145 268 -73 663 -89 990 -39 58 9 112 19 120 22 8 3 22 6 30
7 8 1 35 7 59 14 23 7 45 10 48 8 2 -3 19 -1 36 4 18 4 50 11 72 14 22 2 49 7
60 9 11 2 56 12 100 21 44 9 85 21 91 26 6 5 14 6 17 2 4 -3 17 -2 30 4 12 6
67 20 122 33 103 23 228 56 255 67 8 4 17 7 20 8 39 12 90 29 159 54 46 17 86
30 88 28 11 -11 -63 -130 -100 -159 -57 -47 -174 -114 -221 -126 -21 -6 -46
-18 -55 -26 -39 -34 -299 -128 -436 -156 -33 -6 -115 -27 -182 -46 -67 -19
-134 -34 -150 -34 -15 0 -73 -9 -128 -19 -55 -11 -143 -22 -195 -26 -52 -4
-104 -9 -115 -11 -42 -9 -96 -15 -162 -17 -67 -3 -68 -3 -71 -32 -5 -39 15
-272 30 -353 l12 -65 83 6 c45 3 99 11 120 16 212 57 428 94 532 89 45 -2 81
0 81 3 0 4 -16 21 -35 37 -19 17 -31 34 -26 37 5 3 45 10 88 15 77 10 191 31
268 49 22 6 45 18 52 28 25 37 35 43 66 45 18 1 40 2 51 2 10 1 28 13 40 28
11 14 35 33 53 42 17 8 48 31 68 50 33 32 39 34 52 20 28 -27 120 15 162 75
12 16 42 40 68 53 25 12 71 46 102 74 31 28 78 71 105 95 27 24 74 75 105 112
150 182 198 290 208 468 5 97 4 115 -17 171 -12 35 -31 75 -42 91 -28 39 -105
75 -185 86 -37 5 -126 20 -198 35 -71 14 -164 31 -205 37 -134 19 -211 40
-465 124 -265 89 -358 126 -372 148 -4 7 -37 31 -73 52 -123 72 -318 245 -403
357 -62 80 -137 195 -152 231 -8 20 -20 39 -26 42 -6 4 -28 46 -50 94 -22 47
-51 109 -66 136 -169 328 -182 363 -228 640 -8 50 -24 140 -35 200 -11 61 -26
169 -34 240 -21 186 -53 337 -113 535 -28 92 -137 372 -157 405 -7 11 -23 47
-36 80 -13 33 -39 84 -57 113 -18 29 -33 54 -33 56 0 3 -22 37 -48 78 -27 40
-56 88 -66 105 -18 36 -131 188 -180 243 -17 20 -60 69 -96 110 -160 182 -251
267 -454 420 -191 146 -211 154 -102 43 76 -79 182 -230 218 -313 11 -25 41
-106 65 -180 44 -133 45 -137 45 -275 1 -136 0 -142 -34 -236 -63 -170 -90
-212 -215 -342 -58 -60 -103 -90 -223 -150 -83 -41 -409 -161 -417 -153 -2 2
1 25 7 52 46 226 52 289 48 459 l-4 170 -46 90 c-72 140 -172 238 -365 357
-189 115 -528 299 -663 359 -19 8 -57 27 -85 41 -111 58 -343 168 -395 188
-30 12 -93 43 -140 68 -47 26 -127 66 -179 89 -51 24 -100 48 -107 54 -8 6
-47 28 -88 48 -40 21 -86 47 -102 60 -16 12 -53 37 -81 57 -146 96 -391 314
-707 629 -116 116 -247 251 -291 300 -43 50 -112 126 -153 170 -116 127 -126
137 -169 195 -22 30 -51 64 -63 75 -13 11 -53 61 -90 110 -37 50 -78 101 -92
115 -13 14 -39 45 -57 70 -38 54 -129 170 -176 225 -39 45 -100 122 -162 202
-23 30 -48 60 -55 66 -8 7 -31 35 -53 62 -65 84 -164 189 -207 221 -34 25 -92
31 -136 14z m-1 -1927 c15 -40 4 -52 -14 -16 -20 37 -21 43 -7 43 6 0 15 -12
21 -27z m2259 -1218 c19 -19 39 -35 44 -34 6 0 5 3 -1 6 -14 5 -18 33 -5 33 4
0 25 -16 46 -35 22 -19 43 -35 47 -35 4 0 38 -24 75 -53 80 -61 158 -110 211
-132 21 -9 47 -24 58 -34 11 -10 52 -33 90 -51 39 -17 77 -36 85 -41 8 -5 32
-18 53 -29 20 -11 37 -25 37 -30 0 -8 -42 8 -155 60 -22 10 -51 21 -65 25 -76
22 -393 196 -437 241 -16 16 -43 19 -43 5 0 -14 59 -71 73 -71 7 0 50 -23 97
-51 102 -62 266 -141 350 -169 89 -30 160 -62 160 -73 0 -5 -8 -11 -18 -14
-27 -7 -118 -118 -218 -265 -36 -54 -69 -100 -74 -103 -5 -3 -19 -1 -30 5 -28
15 -174 124 -227 169 -115 99 -164 134 -228 164 -38 19 -76 41 -83 49 -7 9
-20 54 -29 101 -21 107 -15 123 78 212 64 62 72 67 104 62 19 -3 37 -2 39 2 7
11 -32 51 -48 51 -13 0 -58 -32 -137 -99 -20 -17 -39 -28 -42 -24 -11 11 33
63 89 104 40 29 54 46 54 64 0 33 10 31 50 -10z m830 -491 c83 -34 178 -83
265 -139 39 -24 73 -44 77 -45 7 0 107 -73 232 -168 26 -20 90 -71 141 -113
51 -42 113 -91 139 -109 25 -18 46 -36 46 -40 0 -4 30 -28 68 -54 37 -25 92
-65 122 -87 30 -22 78 -56 105 -75 105 -73 195 -156 195 -183 0 -6 -16 -10
-35 -9 -24 1 -43 -6 -60 -22 -14 -13 -25 -21 -25 -18 0 7 -93 -17 -217 -55
-56 -18 -137 -31 -267 -43 l-186 -17 -43 32 c-61 46 -87 58 -96 43 -5 -9 -12
-7 -26 8 -10 11 -42 33 -71 50 -73 41 -143 115 -136 144 5 18 3 19 -11 8 -13
-11 -27 -2 -100 70 -46 46 -105 101 -132 123 -26 22 -77 68 -112 103 -36 34
-68 62 -72 62 -4 0 -32 18 -62 41 -30 22 -64 45 -76 49 -31 13 -56 54 -48 80
8 24 153 221 171 233 7 4 22 26 34 50 13 25 41 55 68 74 26 18 47 33 48 33 0
0 29 -12 64 -26z m-770 -169 c9 -11 7 -12 -9 -8 -11 3 -25 11 -31 18 -9 11 -7
12 9 8 11 -3 25 -11 31 -18z m3493 -81 c33 -22 137 -163 137 -186 0 -5 9 -28
19 -52 26 -56 48 -116 72 -196 62 -207 69 -239 69 -320 l0 -72 -27 6 c-39 10
-49 26 -89 151 -19 60 -40 114 -45 119 -5 6 -9 18 -9 27 0 9 -7 19 -15 23 -8
3 -15 14 -15 25 0 11 -4 22 -9 25 -8 5 -13 23 -27 95 -8 42 -63 144 -110 204
-24 31 -44 66 -44 78 0 13 -4 18 -12 13 -8 -5 -9 -2 -5 10 4 10 7 33 7 53 0
34 1 34 33 28 17 -4 49 -18 70 -31z m-3170 -150 c18 -9 62 -44 98 -78 155
-144 185 -169 212 -178 15 -6 27 -17 27 -28 0 -29 314 -328 415 -394 50 -33
102 -68 117 -78 15 -10 40 -23 55 -29 22 -8 25 -12 13 -20 -15 -9 194 -7 435
6 102 5 406 19 660 31 240 11 311 2 387 -50 20 -13 39 -22 42 -18 3 3 6 -2 6
-11 0 -8 15 -25 33 -36 18 -11 43 -38 56 -60 12 -23 31 -46 42 -51 10 -6 19
-15 19 -21 0 -6 18 -49 41 -95 22 -46 46 -112 54 -147 18 -80 29 -116 48 -154
9 -16 21 -60 28 -96 8 -44 17 -67 26 -67 11 0 11 5 3 20 -6 11 -15 46 -21 77
-27 149 -187 555 -213 541 -7 -4 -47 74 -43 85 1 4 20 -5 42 -21 44 -32 92
-52 81 -33 -4 6 -14 11 -21 11 -8 0 -30 14 -48 30 -19 17 -38 30 -42 30 -4 0
-21 10 -38 22 -38 27 -79 49 -150 77 -60 25 -47 25 -462 -3 -126 -9 -249 -19
-272 -22 -54 -8 -58 11 -5 21 20 5 42 9 47 11 50 12 176 38 245 50 271 47 326
59 437 94 67 22 132 45 145 53 13 8 34 18 48 22 77 22 283 194 358 300 14 19
28 35 31 35 9 0 35 -64 62 -150 55 -178 168 -510 192 -563 15 -32 27 -60 27
-63 0 -9 50 -137 64 -164 8 -14 28 -60 46 -102 17 -43 35 -78 39 -78 4 0 12
-13 18 -29 14 -38 0 -42 -98 -25 -155 26 -210 63 -302 198 -94 138 -185 222
-259 240 -24 5 -26 4 -23 -16 3 -13 14 -31 26 -40 12 -10 17 -18 11 -18 -6 0
-19 11 -30 25 -18 23 -42 34 -42 19 0 -11 34 -64 41 -64 4 0 12 -15 20 -32 7
-18 25 -49 40 -68 16 -19 38 -57 50 -85 12 -27 30 -70 41 -95 10 -25 23 -54
28 -65 5 -11 14 -38 21 -60 6 -22 27 -69 45 -104 19 -35 34 -70 34 -77 0 -8
15 -14 38 -16 31 -2 36 -6 34 -23 -14 -91 -13 -116 7 -189 26 -93 51 -146 88
-182 l28 -26 -25 5 c-14 3 -68 21 -120 39 -52 19 -192 62 -310 96 -118 35
-244 72 -280 83 -62 19 -192 57 -290 84 -178 50 -240 69 -350 105 -69 23 -174
52 -235 65 -60 13 -148 36 -194 50 -47 14 -93 25 -104 25 -10 0 -56 11 -101
24 -93 27 -175 49 -261 70 -33 8 -98 25 -145 39 -47 13 -130 37 -185 51 -94
26 -229 73 -338 118 -27 10 -51 17 -54 14 -6 -5 5 -10 107 -48 30 -11 60 -24
65 -28 15 -11 189 -66 270 -85 39 -9 113 -30 165 -45 134 -40 370 -105 470
-130 47 -11 94 -25 105 -29 11 -5 78 -21 149 -35 70 -15 160 -39 200 -55 39
-15 112 -40 161 -55 50 -15 140 -43 200 -61 223 -69 341 -104 375 -110 46 -9
146 -39 191 -59 19 -8 69 -24 110 -35 147 -39 245 -70 319 -101 41 -17 93 -36
114 -41 22 -6 44 -13 50 -17 6 -3 17 -7 25 -9 25 -3 41 -28 47 -76 5 -38 4
-48 -9 -53 -27 -10 -98 32 -170 101 -65 61 -123 91 -160 83 -6 -1 -39 7 -72
19 -88 31 -191 60 -267 74 -38 7 -68 16 -68 19 0 6 -185 63 -395 121 -38 11
-117 35 -175 53 -58 19 -154 49 -215 66 -60 18 -159 47 -220 66 -112 34 -244
68 -302 79 -18 4 -33 10 -33 15 0 4 -19 11 -42 15 -24 4 -61 13 -83 20 -22 7
-86 27 -143 45 -56 17 -115 38 -130 46 -31 16 -61 19 -46 4 5 -5 43 -20 84
-34 127 -43 440 -144 530 -171 47 -14 99 -32 115 -40 17 -8 46 -17 64 -20 19
-3 42 -10 52 -16 10 -5 51 -18 91 -29 40 -10 141 -41 223 -69 243 -81 286 -93
306 -88 10 3 17 0 16 -6 -1 -6 23 -19 53 -28 146 -47 317 -99 325 -99 6 0 53
-14 105 -31 52 -17 106 -32 120 -34 14 -1 25 -3 25 -4 0 -1 29 -10 65 -19 80
-21 85 -30 99 -182 11 -132 31 -182 88 -229 62 -52 96 -57 194 -30 46 12 104
22 127 21 49 -1 78 -18 63 -36 -18 -22 -41 -120 -41 -174 0 -49 3 -57 35 -87
27 -24 54 -36 112 -49 112 -24 141 -53 51 -49 l-53 3 60 -23 c89 -33 99 -40
134 -106 18 -34 48 -81 67 -106 19 -25 34 -50 34 -55 0 -12 -106 26 -142 51
-14 11 -30 19 -36 19 -5 0 -25 14 -43 30 -19 17 -92 60 -164 97 -71 36 -141
71 -155 79 -28 15 -138 64 -145 64 -5 0 -474 227 -495 240 -8 4 -46 27 -84 50
-37 23 -87 48 -110 56 -22 8 -70 32 -106 53 -36 21 -94 52 -130 69 -36 17
-101 53 -145 79 -44 27 -96 57 -115 66 -19 10 -42 22 -50 27 -8 5 -71 37 -140
71 -69 33 -132 67 -140 74 -8 7 -62 36 -120 65 -58 29 -112 58 -120 65 -14 11
-78 47 -215 119 -27 15 -56 33 -65 41 -8 7 -51 32 -95 54 -44 23 -98 52 -120
66 -22 13 -67 38 -100 55 -33 17 -76 41 -95 52 -19 12 -60 34 -90 51 -30 16
-59 33 -65 37 -37 27 -183 97 -178 85 3 -8 10 -15 17 -15 6 0 42 -20 79 -45
38 -25 73 -45 78 -45 12 0 173 -87 314 -170 44 -26 118 -69 165 -97 47 -27
128 -75 181 -106 53 -31 99 -57 104 -57 5 0 16 -7 25 -15 9 -8 54 -34 101 -58
46 -24 111 -61 144 -82 32 -21 125 -72 205 -113 80 -41 177 -94 215 -117 39
-23 187 -102 330 -175 143 -72 267 -137 275 -144 8 -7 31 -19 50 -26 19 -8 53
-27 74 -42 21 -15 44 -28 49 -28 6 0 85 -36 176 -81 91 -44 177 -86 191 -93
14 -7 43 -21 65 -33 22 -11 78 -37 125 -57 114 -50 211 -98 231 -116 36 -33
58 -48 76 -52 10 -2 17 -10 15 -17 -1 -7 2 -10 7 -7 5 4 12 2 16 -3 3 -6 32
-25 65 -42 32 -18 57 -36 54 -40 -2 -4 26 -12 63 -18 101 -15 124 -19 168 -29
37 -9 38 -10 10 -11 -42 -2 -55 -13 -65 -56 -10 -46 -6 -59 26 -74 41 -18 91
-14 114 11 28 31 24 89 -7 103 -40 17 -25 22 62 17 103 -5 245 27 309 70 43
28 56 28 56 -1 0 -26 8 -30 40 -21 22 6 32 4 45 -10 26 -29 15 -53 -35 -72
-25 -9 -37 -17 -28 -17 9 -1 18 -6 20 -13 6 -18 53 -1 67 25 10 18 10 33 1 65
-10 39 -13 42 -46 42 -33 0 -35 2 -32 27 3 24 8 27 42 30 26 1 47 -4 63 -17
13 -10 38 -22 54 -25 17 -4 33 -13 36 -21 7 -20 23 -17 23 4 0 9 -16 26 -38
37 -24 13 -37 27 -37 40 0 35 35 29 79 -14 40 -39 42 -40 86 -30 24 6 49 14
55 19 6 5 47 -7 100 -29 148 -60 282 -97 660 -181 22 -5 98 -19 169 -32 70
-12 135 -28 144 -34 28 -20 -29 -253 -102 -416 -24 -54 -29 -58 -101 -93 -127
-60 -327 -122 -550 -170 -38 -8 -131 -28 -205 -45 -74 -17 -175 -37 -225 -45
-49 -7 -90 -14 -90 -15 0 -1 -16 -3 -35 -6 -19 -2 -80 -14 -135 -26 -92 -21
-125 -23 -395 -23 -261 0 -309 3 -417 22 -122 22 -299 68 -318 82 -5 4 -41 18
-80 31 -103 33 -257 105 -390 180 -38 22 -88 50 -110 61 -51 25 -125 69 -155
91 -21 16 -22 20 -11 42 8 13 52 71 98 128 98 120 159 209 221 325 24 46 46
83 48 83 6 0 115 -59 128 -69 12 -10 259 -71 284 -71 36 1 -35 28 -118 45 -47
10 -122 35 -167 57 -46 21 -87 38 -92 38 -6 0 -15 8 -20 18 -7 14 -4 34 14 78
14 32 25 67 25 77 0 26 23 21 165 -34 72 -28 159 -62 195 -75 36 -14 102 -43
148 -66 85 -42 151 -54 160 -29 3 8 -1 12 -9 9 -15 -6 -83 18 -164 57 -27 13
-99 42 -160 66 -60 23 -115 46 -120 50 -6 4 -26 11 -45 14 -19 3 -42 13 -51
21 -8 7 -23 14 -32 14 -9 0 -31 6 -49 14 -18 8 -79 31 -135 51 -56 21 -107 43
-113 50 -6 7 -20 11 -30 8 -14 -4 -20 0 -20 11 0 10 -5 13 -17 9 -10 -4 -14
-2 -10 4 4 6 0 13 -7 16 -8 3 -17 1 -20 -6 -5 -9 -7 -9 -12 1 -3 6 -12 12 -20
12 -8 0 -14 9 -14 20 0 15 -7 20 -29 20 -16 0 -34 7 -41 15 -7 8 -18 15 -24
15 -6 1 -29 9 -51 20 -22 11 -47 19 -56 20 -8 0 -24 7 -35 15 -10 8 -27 15
-36 15 -10 0 -18 4 -18 8 0 4 -12 13 -27 19 -16 7 -46 22 -68 35 -22 13 -47
24 -55 26 -7 2 -18 9 -24 16 -6 8 -50 35 -98 61 -49 25 -91 52 -95 59 -10 15
-80 56 -97 56 -8 0 -20 7 -27 16 -7 9 -22 20 -34 25 -28 12 -48 26 -135 89
-41 30 -82 59 -91 65 -60 37 -375 253 -469 321 -116 84 -211 146 -215 142 -3
-3 23 -24 57 -47 62 -40 85 -57 300 -211 57 -41 111 -79 120 -85 61 -38 145
-99 218 -158 47 -38 96 -74 110 -81 37 -16 84 -49 93 -63 4 -7 17 -13 27 -13
11 0 34 -13 52 -29 18 -15 49 -36 68 -46 19 -10 40 -24 45 -31 6 -6 39 -27 75
-45 35 -18 86 -48 113 -66 27 -18 53 -33 59 -33 5 0 21 -9 34 -19 14 -11 48
-27 75 -36 28 -10 85 -35 127 -57 42 -23 94 -49 114 -60 59 -31 64 -43 37 -82
-63 -87 -86 -115 -116 -136 -39 -27 -43 -25 -138 64 -32 31 -62 56 -65 56 -3
0 -30 21 -60 46 -30 25 -92 70 -136 99 -45 29 -85 58 -88 64 -4 6 -15 11 -25
11 -14 0 -136 84 -161 110 -3 3 -18 16 -35 29 -33 25 -108 88 -164 138 -20 18
-40 33 -46 33 -5 0 -26 15 -46 33 -19 17 -54 45 -77 61 -23 16 -42 34 -42 40
0 17 -31 33 -79 41 -41 7 -68 34 -43 43 7 2 10 8 7 12 -3 5 -12 7 -19 4 -7 -3
-19 2 -26 11 -7 8 -22 15 -34 15 -17 0 -18 2 -6 10 10 6 11 10 3 10 -7 0 -13
4 -13 10 0 5 8 7 18 4 9 -4 5 2 -10 12 -46 32 -180 136 -238 185 -30 26 -107
85 -170 132 -140 105 -176 133 -260 200 -36 28 -73 57 -82 62 -46 27 -271 185
-328 230 -36 28 -85 64 -110 79 -98 63 -185 150 -110 111 36 -19 41 -19 34 -1
-3 8 -26 24 -52 36 -26 12 -65 31 -87 43 -22 12 -74 36 -115 53 -63 26 -75 35
-73 53 5 43 33 251 58 436 20 146 54 491 55 548 0 10 7 9 43 -9z m-1613 -845
c0 -4 -7 -6 -15 -3 -8 4 -15 10 -15 15 0 4 7 6 15 3 8 -4 15 -10 15 -15z
m4130 -9 c0 -5 -2 -10 -4 -10 -3 0 -8 5 -11 10 -3 6 -1 10 4 10 6 0 11 -4 11
-10z m234 -99 c-2 -3 -12 3 -22 13 -16 17 -16 18 5 5 12 -7 20 -15 17 -18z
m56 -158 c0 -12 -30 13 -39 33 -18 39 -13 41 14 4 14 -19 25 -35 25 -37z m20
-41 c0 -15 -2 -15 -10 -2 -13 20 -13 33 0 25 6 -3 10 -14 10 -23z m34 -77 c7
-34 -7 -15 -19 25 -5 16 -4 22 3 15 5 -5 12 -23 16 -40z m-2630 -56 c20 -12
36 -25 36 -31 0 -10 -56 20 -72 40 -15 17 -4 15 36 -9z m89 -71 c44 -31 47
-33 87 -66 19 -16 69 -54 110 -84 41 -31 87 -67 101 -80 15 -14 33 -27 41 -30
7 -3 72 -57 143 -120 72 -62 146 -124 165 -138 19 -13 54 -43 77 -66 24 -23
57 -52 74 -65 18 -13 50 -40 73 -60 23 -19 57 -46 76 -59 19 -13 53 -40 76
-59 91 -81 104 -91 119 -91 9 0 18 -7 21 -15 4 -8 12 -15 18 -15 7 0 18 -10
25 -23 7 -13 27 -29 45 -35 35 -13 141 -91 189 -139 16 -16 26 -35 23 -45 -3
-13 2 -18 16 -18 12 0 17 4 12 12 -4 7 -3 8 5 4 9 -6 9 -11 -1 -24 -11 -14
-10 -15 7 -8 11 4 16 4 13 0 -11 -10 11 -44 27 -44 8 0 15 -7 15 -16 0 -10 5
-14 16 -10 8 3 12 2 9 -4 -3 -5 11 -21 31 -37 20 -15 44 -35 53 -43 25 -22 89
-70 95 -70 2 0 18 -12 34 -27 59 -55 128 -111 202 -163 41 -29 80 -59 85 -65
24 -29 235 -175 253 -175 6 0 12 -4 12 -10 0 -24 -57 -6 -127 40 -42 27 -79
50 -84 50 -4 0 -12 6 -16 14 -4 7 -21 22 -38 32 -48 30 -162 114 -251 184 -45
36 -94 74 -110 85 -15 11 -32 25 -38 30 -6 6 -27 22 -46 35 -19 14 -65 52
-102 85 -87 77 -171 149 -233 200 -27 22 -62 52 -77 67 -16 15 -36 26 -46 26
-30 -3 -97 48 -206 154 -97 93 -127 130 -93 113 6 -4 -1 3 -16 15 -27 22 -149
123 -217 180 -19 17 -53 45 -75 63 -23 17 -53 43 -69 57 -15 14 -40 36 -54 48
-15 13 -45 40 -67 60 -51 48 -213 183 -243 204 -12 8 -44 35 -70 60 -26 24
-62 54 -79 67 -18 12 -33 27 -33 32 0 14 9 11 43 -13z m217 -138 c0 -5 -2 -10
-4 -10 -3 0 -8 5 -11 10 -3 6 -1 10 4 10 6 0 11 -4 11 -10z m3041 -151 c23
-16 45 -19 136 -19 125 0 122 2 167 -92 l27 -56 -29 -54 -29 -53 -109 3 c-208
5 -281 20 -366 76 -59 39 -108 123 -108 186 l0 43 142 -8 c116 -6 148 -11 169
-26z m-2833 -8 c3 -10 0 -10 -17 -2 -25 14 -27 20 -4 17 9 -2 19 -8 21 -15z
m2468 -398 c-7 -7 -26 7 -26 19 0 6 6 6 15 -2 9 -7 13 -15 11 -17z m514 -9 c0
-13 -21 -44 -30 -44 -6 0 -10 9 -10 19 0 15 -5 18 -22 14 -19 -4 -20 -3 -8 6
16 11 70 15 70 5z m-270 -59 c0 -2 -10 -10 -22 -16 -21 -11 -22 -11 -9 4 13
16 31 23 31 12z m296 -26 c59 -15 102 -19 171 -17 l91 3 32 -40 c54 -67 84
-125 72 -137 -28 -28 -410 -44 -436 -18 -5 5 -21 10 -35 10 -14 0 -44 9 -68
21 -39 19 -43 24 -43 57 0 59 28 102 80 122 25 10 48 18 51 19 3 1 41 -8 85
-20z m-629 -23 c15 -19 45 -42 66 -52 20 -10 37 -21 37 -26 0 -4 6 -8 14 -8
22 0 27 -15 17 -43 -8 -19 -5 -34 10 -63 10 -22 17 -45 14 -53 -3 -8 0 -11 9
-8 21 8 43 -20 28 -35 -20 -20 -13 -32 6 -15 23 21 33 21 57 3 18 -13 15 -15
-33 -40 -63 -32 -66 -32 -59 -3 l6 22 -16 -22 c-8 -13 -23 -23 -33 -23 -25 0
-108 76 -131 121 -21 42 -51 226 -38 234 4 3 5 14 2 25 -8 30 12 24 44 -14z
m925 -451 c-53 -30 -94 -42 -190 -53 -81 -9 -90 -5 -73 41 10 26 12 26 118 30
59 1 126 4 148 5 l40 2 -43 -25z m566 -315 c34 -30 62 -60 62 -67 0 -19 -29
-30 -100 -37 -36 -4 -88 -14 -117 -22 -32 -9 -82 -14 -135 -12 l-83 3 0 37
c-1 26 -7 42 -25 57 -22 17 -26 18 -36 5 -16 -21 -106 -30 -121 -13 -6 8 -14
40 -18 72 -7 55 -6 59 16 64 39 11 275 132 290 149 11 14 24 4 109 -83 53 -54
124 -123 158 -153z m-1513 -95 c80 -21 86 -25 79 -49 -26 -86 -45 -132 -58
-141 -30 -18 -28 5 7 77 l34 73 -51 22 c-28 12 -59 22 -68 23 -9 0 -20 5 -24
12 -5 8 -2 9 12 4 10 -4 42 -13 69 -21z m1090 15 c-3 -5 -11 -10 -16 -10 -6 0
-7 5 -4 10 3 6 11 10 16 10 6 0 7 -4 4 -10z m23 -32 c-5 -16 -41 -22 -74 -14
-42 11 -26 26 27 26 36 0 49 -4 47 -12z m-1334 -34 c20 -8 21 -34 2 -34 -25 0
-46 12 -46 26 0 15 18 18 44 8z m2001 -54 c3 -5 -1 -10 -10 -10 -9 0 -13 5
-10 10 3 6 8 10 10 10 2 0 7 -4 10 -10z m89 -29 l29 -30 -27 -7 c-32 -8 -56
10 -56 42 0 32 20 30 54 -5z m-1869 -91 c4 -7 -48 -111 -100 -198 -13 -22
-191 -263 -247 -336 l-16 -21 -31 23 c-16 12 -34 22 -40 22 -5 0 -12 7 -15 16
-4 10 -2 13 7 7 6 -4 20 -6 31 -4 10 1 23 -3 27 -11 6 -9 9 -9 9 -1 0 6 20 26
44 44 35 24 50 45 70 93 13 33 20 63 15 64 -13 5 -11 22 4 22 6 0 23 14 37 30
14 17 44 51 67 77 23 27 48 59 55 73 7 14 15 27 18 30 3 3 14 22 24 43 19 37
30 45 41 27z m-730 -225 c38 -33 80 -71 92 -85 23 -26 30 -50 14 -50 -9 0 -55
50 -63 67 -1 4 -20 17 -42 28 -21 10 -42 29 -46 40 -4 12 -21 37 -36 56 -34
41 -16 29 81 -56z"/>
<path d="M3735 4938 c39 -23 72 -45 75 -49 3 -5 16 -6 28 -3 17 5 5 14 -65 50
-108 56 -130 57 -38 2z"/>
<path d="M3880 4840 c18 -16 36 -30 39 -30 2 0 -8 14 -24 30 -16 17 -33 30
-39 30 -5 0 6 -13 24 -30z"/>
<path d="M4016 4841 c-3 -5 3 -11 15 -14 16 -4 18 -3 8 9 -13 16 -16 17 -23 5z"/>
<path d="M4200 4790 c0 -5 5 -10 11 -10 5 0 7 5 4 10 -3 6 -8 10 -11 10 -2 0
-4 -4 -4 -10z"/>
<path d="M4364 4517 c10 -7 59 -43 108 -80 49 -38 92 -67 94 -64 4 4 -58 56
-102 87 -65 45 -104 70 -111 69 -5 0 0 -6 11 -12z"/>
<path d="M8090 2858 c0 -25 3 -29 10 -18 13 20 13 50 0 50 -5 0 -10 -15 -10
-32z"/>
<path d="M8072 2782 c-7 -15 -34 -40 -60 -57 -46 -29 -49 -30 -190 -30 -93 0
-135 -3 -122 -9 11 -5 20 -12 20 -16 0 -10 -153 -30 -240 -31 -41 -1 -100 -4
-130 -8 -53 -6 -51 -7 46 -14 99 -7 224 3 294 23 19 6 56 10 81 10 26 0 75 9
109 20 34 11 76 20 91 20 16 0 29 5 29 10 0 6 5 10 10 10 16 0 79 43 85 58 3
8 2 20 -3 28 -5 10 -11 6 -20 -14z"/>
<path d="M6938 2758 c5 -5 16 -8 23 -6 8 3 3 7 -10 11 -17 4 -21 3 -13 -5z"/>
<path d="M7100 2756 c19 -8 49 -14 65 -14 29 0 29 1 -5 8 -19 4 -48 10 -65 14
-27 6 -27 5 5 -8z"/>
<path d="M7243 2733 c9 -2 25 -2 35 0 9 3 1 5 -18 5 -19 0 -27 -2 -17 -5z"/>
<path d="M7340 2731 c0 -6 23 -10 50 -9 28 0 50 4 50 9 0 5 -22 9 -50 9 -27 0
-50 -4 -50 -9z"/>
<path d="M8046 2682 c-3 -5 -22 -13 -41 -16 -40 -8 -48 -26 -11 -26 26 0 75
34 65 45 -4 3 -10 2 -13 -3z"/>
<path d="M4950 3801 c0 -5 5 -13 10 -16 6 -3 10 -2 10 4 0 5 -4 13 -10 16 -5
3 -10 2 -10 -4z"/>
<path d="M10080 80 l0 -80 80 0 80 0 0 80 0 80 -80 0 -80 0 0 -80z"/>
</g>
</svg>
